<svg xmlns="http://www.w3.org/2000/svg" viewBox="0 0 32 32" width="32" height="32">
  <defs>
    <linearGradient id="g" x1="0" y1="0" x2="1" y2="1">
      <stop offset="0%" stop-color="#fbbf24"/>
      <stop offset="100%" stop-color="#d97706"/>
    </linearGradient>
  </defs>
  <rect width="32" height="32" fill="#0a0f1a" rx="6"/>
  <polygon points="16,2 28,8 28,24 16,30 4,24 4,8" fill="#0d1424" stroke="#1e293b" stroke-width="0.5"/>
  <!-- E simplified -->
  <rect x="8" y="10" width="2" height="13" rx="0.5" fill="#f8fafc"/>
  <rect x="8" y="10" width="7" height="2" rx="0.5" fill="#f8fafc"/>
  <rect x="8" y="15" width="6" height="1.5" rx="0.5" fill="#f8fafc"/>
  <rect x="8" y="21" width="7" height="2" rx="0.5" fill="#f8fafc"/>
  <!-- 5 simplified -->
  <rect x="15" y="10" width="7" height="2" rx="0.5" fill="url(#g)"/>
  <rect x="15" y="10" width="2" height="6.5" rx="0.5" fill="url(#g)"/>
  <rect x="15" y="15" width="5" height="1.5" rx="0.5" fill="url(#g)"/>
  <!-- 5 bottom arc simplified -->
  <path d="M 20 17 C 22.5 17, 24 18.5, 24 21 C 24 23.5, 22 24.5, 19.5 24.5 L 17 24.5"
    fill="none" stroke="url(#g)" stroke-width="2" stroke-linecap="round"/>
</svg>