<svg xmlns="http://www.w3.org/2000/svg" viewBox="0 0 512 512" width="512" height="512">
  <defs>
    <linearGradient id="amberGrad" x1="0" y1="0" x2="1" y2="1">
      <stop offset="0%" stop-color="#fbbf24"/>
      <stop offset="100%" stop-color="#d97706"/>
    </linearGradient>
  </defs>

  <!-- White background -->
  <rect width="512" height="512" fill="#ffffff" rx="104"/>

  <!-- Hexagonal outline frame -->
  <polygon points="256,48 432,144 432,368 256,464 80,368 80,144"
    fill="#f8fafc" stroke="#e2e8f0" stroke-width="2.5"/>

  <!-- E letter - dark version for light bg -->
  <g fill="#0a0f1a">
    <rect x="144" y="168" width="24" height="160" rx="3"/>
    <rect x="144" y="168" width="88" height="24" rx="3"/>
    <rect x="144" y="236" width="72" height="20" rx="3"/>
    <rect x="144" y="304" width="88" height="24" rx="3"/>
  </g>

  <!-- 5 numeral - amber accent -->
  <g>
    <rect x="232" y="168" width="90" height="24" rx="3" fill="url(#amberGrad)"/>
    <rect x="232" y="168" width="24" height="74" rx="3" fill="url(#amberGrad)"/>
    <rect x="232" y="242" width="56" height="20" rx="3" fill="url(#amberGrad)"/>
  </g>

  <!-- 5 curve -->
  <path d="M 288 262 C 318 262, 332 280, 332 306 C 332 340, 310 356, 278 356 L 240 356"
    fill="none" stroke="url(#amberGrad)" stroke-width="24" stroke-linecap="round" stroke-linejoin="round"/>

  <!-- Inner curve cutout -->
  <rect x="256" y="280" width="40" height="36" fill="#f8fafc"/>
  <rect x="248" y="276" width="20" height="4" fill="#f8fafc" rx="2"/>

  <!-- Signal nodes -->
  <circle cx="338" cy="160" r="5" fill="#f59e0b" opacity="0.7"/>
  <circle cx="338" cy="160" r="10" fill="none" stroke="#f59e0b" stroke-width="1" opacity="0.3"/>

  <circle cx="168" cy="350" r="4" fill="#f59e0b" opacity="0.5"/>
  <circle cx="168" cy="350" r="8" fill="none" stroke="#f59e0b" stroke-width="1" opacity="0.2"/>

  <!-- "LABS" text -->
  <text x="256" y="420" text-anchor="middle"
    font-family="'Instrument Sans', 'Work Sans', 'Space Grotesk', sans-serif"
    font-weight="600" font-size="28" fill="#64748b" letter-spacing="10">LABS</text>
</svg>